<?xml version="1.0" standalone="no"?>
<!DOCTYPE svg PUBLIC "-//W3C//DTD SVG 20010904//EN"
 "http://www.w3.org/TR/2001/REC-SVG-20010904/DTD/svg10.dtd">
<svg version="1.1" id="Layer_1" xmlns="http://www.w3.org/2000/svg" xmlns:xlink="http://www.w3.org/1999/xlink" x="0px" y="0px"
	 viewBox="0 0 400 400" style="enable-background:new 0 0 400 400;" xml:space="preserve">
<style type="text/css">
	.st0{fill:#FE618F;}
	.st1{fill:#FEFEFE;}
</style>
<path class="st0" d="M416.3,181.4c0,12.1-0.1,24.3,0.1,36.4c0.1,3.5-1.1,4.5-4.6,4.4c-6.3-0.3-12.7-0.2-19,0c-3.1,0.1-4-0.9-3.9-4
	c0.1-15.1-0.1-30.3,0.1-45.4c0.1-3.8-0.8-5.1-4.9-5c-15,0.3-30,0.2-45,0c-3.4,0-4.4,0.9-4.6,4.4c-2.4,43.4-38.1,77-81.5,77
	c-43.1-0.1-78.8-33.8-81.1-76.9c-0.2-3.3-0.8-4.7-4.5-4.5c-6.1,0.3-12.3,0.3-18.5,0c-3.5-0.2-4.3,1.1-4.5,4.5
	c-2.6,37.6-28,67.1-64.3,75.1c-34.1,7.5-69.1-7.9-87.3-38.3c-17.5-29.3-14.3-67.6,7.9-93.6c39.7-46.5,113.6-35.1,137.4,21.2
	c1.3,3.1,2.8,4.2,6.2,4.1c9.3-0.2,18.7-0.2,28,0c3,0.1,4.3-1.1,5.5-3.7c14.8-32.5,40.1-50.4,75.9-50.2c35.3,0.2,60.3,18.2,74.8,50.4
	c1.4,3.1,3.1,3.6,6.1,3.6c25.3-0.1,50.6,0.1,76-0.2c4.8-0.1,5.8,1.6,5.7,5.9C416.2,158.2,416.3,169.8,416.3,181.4z"/>
<path d="M63,168c0,16.6-0.1,33.2,0.1,49.8c0,3.5-0.8,4.6-4.5,4.2c-27-2.9-47.9-24-49.6-50.3C7.3,145,24.8,121.3,51,115.1
	c12-2.9,12-2.9,12,9.1C63,138.8,63,153.4,63,168z"/>
<path d="M253.1,168.2c0,16.4-0.1,32.9,0.1,49.3c0,3.6-0.7,5-4.7,4.5c-28.1-3.1-49.2-25.8-49.5-53.4c-0.3-27.9,20.3-51.1,48.6-54.7
	c4.4-0.6,5.7,0.4,5.6,5C252.9,135.3,253.1,151.8,253.1,168.2z"/>
<path class="st1" d="M253.8,167.7c0-16.6,0.1-33.2-0.1-49.8c0-3.7,1.2-4.5,4.6-4.1c26.8,3.1,47.8,24.5,49.3,50.6
	c1.5,26.6-16.1,50.1-42.3,56.5c-11.5,2.8-11.5,2.8-11.5-8.8C253.8,197.3,253.8,182.5,253.8,167.7z"/>
<path class="st1" d="M63.7,167.4c0-16.3,0.1-32.6-0.1-48.9c-0.1-4,1.1-5.2,5.1-4.7c27.9,3.7,47.9,25.3,48.9,53.2
	c0.9,26-19,50-45.1,54.3c-8.8,1.5-8.8,1.5-8.8-7.5C63.7,198.3,63.7,182.8,63.7,167.4z"/>
</svg>
